# xmcd
#
# Track frame offsets: 
#        150
#        10785
#        22247
#        37355
#        48916
#        62664
#        77602
#        91910
#        105282
#        122383
#        132570
#        148475
#        160730
#        180770
#
# Disc length: 2560 seconds
#
# Revision: 0
# Processed by: cddbd v1.5.2PL0 Copyright (c) Steve Scherf et al.
# Submitted via: ExactAudioCopy v0.99pb4
#
DISCID=b209fe0e
DTITLE=Roland Baisch - Countryboy
DYEAR=2009
DGENRE=Country
TTITLE0=Blues Stay Away Form Me
TTITLE1=Roll In My Sweet Baby's Arms
TTITLE2=Lost Highway
TTITLE3=Sin City
TTITLE4=Spanish Harlem Incident
TTITLE5=Sixteen Tons
TTITLE6=Solitary Man
TTITLE7=Thirteen Woman
TTITLE8=Hangman
TTITLE9=Wayfaring Stranger
TTITLE10=I Don't Even Know Your Name
TTITLE11=Loves Been Good To Me
TTITLE12=Wichita Lineman
TTITLE13=Folsom Prisom Blues
EXTD=
EXTT0=
EXTT1=
EXTT2=
EXTT3=
EXTT4=
EXTT5=
EXTT6=
EXTT7=
EXTT8=
EXTT9=
EXTT10=
EXTT11=
EXTT12=
EXTT13=
PLAYORDER=
